# This file uses centimeters as units for non-parametric coordinates.

mtllib Valla.mtl
g default
v 0.004741 0.000000 0.000000
v 0.204737 -0.000540 0.001108
v -0.000700 1.495136 0.006501
v 0.198402 1.496383 -0.012389
v 0.204737 -0.000540 0.001108
v 0.186066 0.000000 0.245575
v 0.198402 1.496383 -0.012389
v 0.199656 1.504842 0.231014
v 0.186066 0.000000 0.245575
v -0.013930 0.000540 0.244466
v 0.199656 1.504842 0.231014
v 0.000556 1.503595 0.249903
v -0.013930 0.000540 0.244466
v 0.004741 0.000000 0.000000
v 0.000556 1.503595 0.249903
v -0.000700 1.495136 0.006501
v -0.000700 1.495136 0.006501
v 0.198402 1.496383 -0.012389
v 0.000556 1.503595 0.249903
v 0.199656 1.504842 0.231014
v -0.013930 0.000540 0.244466
v 0.186066 0.000000 0.245575
v 0.004741 0.000000 0.000000
v 0.204737 -0.000540 0.001108
v 0.190595 0.976586 1.994931
v 0.191087 1.176499 1.989052
v 0.175656 0.923245 0.179855
v 0.176148 1.123158 0.173977
v 0.191087 1.176499 1.989052
v -0.013705 1.177014 1.987415
v 0.176148 1.123158 0.173977
v -0.003789 1.123674 0.172305
v -0.013705 1.177014 1.987415
v -0.014277 0.977101 1.993287
v -0.003789 1.123674 0.172305
v -0.004363 0.923761 0.178176
v -0.014277 0.977101 1.993287
v 0.190595 0.976586 1.994931
v -0.004363 0.923761 0.178176
v 0.175656 0.923245 0.179855
v 0.175656 0.923245 0.179855
v 0.176148 1.123158 0.173977
v -0.004363 0.923761 0.178176
v -0.003789 1.123674 0.172305
v -0.014277 0.977101 1.993287
v -0.013705 1.177014 1.987415
v 0.190595 0.976586 1.994931
v 0.191087 1.176499 1.989052
v 0.201147 0.400775 2.005554
v 0.199245 0.600770 2.005877
v 0.204695 0.412411 0.187113
v 0.205165 0.612406 0.188372
v 0.199245 0.600770 2.005877
v -0.001849 0.601286 2.000787
v 0.205165 0.612406 0.188372
v 0.008247 0.612922 0.184932
v -0.001849 0.601286 2.000787
v -0.002381 0.401291 1.999502
v 0.008247 0.612922 0.184932
v 0.007713 0.412927 0.183647
v -0.002381 0.401291 1.999502
v 0.201147 0.400775 2.005554
v 0.007713 0.412927 0.183647
v 0.204695 0.412411 0.187113
v 0.204695 0.412411 0.187113
v 0.205165 0.612406 0.188372
v 0.007713 0.412927 0.183647
v 0.008247 0.612922 0.184932
v -0.002381 0.401291 1.999502
v -0.001849 0.601286 2.000787
v 0.201147 0.400775 2.005554
v 0.199245 0.600770 2.005877
v 0.190995 1.015573 4.155497
v 0.175937 1.214999 4.157104
v 0.000649 1.001208 4.154482
v -0.014409 1.200633 4.156089
v 0.183527 0.464799 4.156824
v 0.184071 0.664797 4.156286
v -0.007711 0.465316 4.155764
v -0.007168 0.665314 4.155227
v -0.003798 0.010000 3.935842
v 0.196198 0.009460 3.936949
v 0.000478 1.455370 3.931961
v 0.199822 1.471519 3.933020
v 0.196198 0.009460 3.936949
v 0.181629 0.010000 4.171028
v 0.199822 1.471519 3.933020
v 0.185253 1.472059 4.167098
v 0.181629 0.010000 4.171028
v -0.018366 0.010540 4.169920
v 0.185253 1.472059 4.167098
v -0.014092 1.455910 4.166038
v -0.018366 0.010540 4.169920
v -0.003798 0.010000 3.935842
v -0.014092 1.455910 4.166038
v 0.000478 1.455370 3.931961
v 0.000478 1.455370 3.931961
v 0.199822 1.471519 3.933020
v -0.014092 1.455910 4.166038
v 0.185253 1.472059 4.167098
v -0.018366 0.010540 4.169920
v 0.181629 0.010000 4.171028
v -0.003798 0.010000 3.935842
v 0.196198 0.009460 3.936949
v -0.006121 0.010000 1.959963
v 0.193875 0.009460 1.961072
v -0.003671 1.483065 1.962416
v 0.195892 1.471005 1.957023
v 0.193875 0.009460 1.961072
v 0.192769 0.010000 2.161068
v 0.195892 1.471005 1.957023
v 0.198156 1.421808 2.150864
v 0.192769 0.010000 2.161068
v -0.007227 0.010540 2.159959
v 0.198156 1.421808 2.150864
v -0.001406 1.433867 2.156257
v -0.007227 0.010540 2.159959
v -0.006121 0.010000 1.959963
v -0.001406 1.433867 2.156257
v -0.003671 1.483065 1.962416
v -0.003671 1.483065 1.962416
v 0.195892 1.471005 1.957023
v -0.001406 1.433867 2.156257
v 0.198156 1.421808 2.150864
v -0.007227 0.010540 2.159959
v 0.192769 0.010000 2.161068
v -0.006121 0.010000 1.959963
v 0.193875 0.009460 1.961072
v 0.163805 0.418868 3.967796
v 0.191509 0.615100 3.958765
v 0.173769 0.372111 2.147439
v 0.193929 0.568343 2.135430
v 0.191509 0.615100 3.958765
v -0.008100 0.651653 3.951958
v 0.193929 0.568343 2.135430
v 0.001863 0.604896 2.131602
v -0.008100 0.651653 3.951958
v -0.026213 0.455421 3.964777
v 0.001863 0.604896 2.131602
v -0.016598 0.408664 2.144282
v -0.026213 0.455421 3.964777
v 0.163805 0.418868 3.967796
v -0.016598 0.408664 2.144282
v 0.173769 0.372111 2.147439
v 0.173769 0.372111 2.147439
v 0.193929 0.568343 2.135430
v -0.016598 0.408664 2.144282
v 0.001863 0.604896 2.131602
v -0.026213 0.455421 3.964777
v -0.008100 0.651653 3.951958
v 0.163805 0.418868 3.967796
v 0.191509 0.615100 3.958765
v 0.183681 0.990025 3.961309
v 0.184222 1.190024 3.961312
v 0.193745 0.990025 2.145416
v 0.194285 1.190024 2.145419
v 0.184222 1.190024 3.961312
v -0.010323 1.190540 3.958810
v 0.194285 1.190024 2.145419
v -0.005837 1.190540 2.140713
v -0.010323 1.190540 3.958810
v -0.013109 0.990541 3.957920
v -0.005837 1.190540 2.140713
v -0.006378 0.990541 2.140710
v -0.013109 0.990541 3.957920
v 0.183681 0.990025 3.961309
v -0.006378 0.990541 2.140710
v 0.193745 0.990025 2.145416
v 0.193745 0.990025 2.145416
v 0.194285 1.190024 2.145419
v -0.006378 0.990541 2.140710
v -0.005837 1.190540 2.140713
v -0.013109 0.990541 3.957920
v -0.010323 1.190540 3.958810
v 0.183681 0.990025 3.961309
v 0.184222 1.190024 3.961312
vt 0.243701 0.000000
vt 0.443701 0.000000
vt 0.453146 1.495130
vt 0.254156 1.496827
vt 0.499587 -0.000000
vt 0.699587 -0.000000
vt 0.709005 1.496968
vt 0.510158 1.504805
vt 0.860416 0.000000
vt 1.060416 0.000000
vt 1.069861 1.504945
vt 0.870871 1.502965
vt 0.389922 -0.000000
vt 0.589922 -0.000000
vt 0.599340 1.503105
vt 0.400492 1.494991
vt 0.198997 0.219000
vt 0.000000 0.198997
vt 0.020003 0.000000
vt 0.219000 0.020003
vt 0.000000 0.000000
vt 0.200000 0.000000
vt 0.200000 0.200000
vt 0.000000 0.200000
vt 0.328997 0.000000
vt 0.528997 0.000000
vt 0.528997 1.815921
vt 0.328997 1.815921
vt 0.560512 0.000000
vt 0.751403 0.000000
vt 0.751403 1.815921
vt 0.560512 1.815921
vt 0.865139 0.000000
vt 1.065139 0.000000
vt 1.065139 1.815921
vt 0.865139 1.815921
vt 0.109665 0.000000
vt 0.300555 0.000000
vt 0.300555 1.815921
vt 0.109665 1.815921
vt 0.200000 0.190890
vt 0.000000 0.190890
vt 0.000000 0.000000
vt 0.200000 0.000000
vt 0.000000 0.000000
vt 0.200000 0.000000
vt 0.200000 0.190890
vt 0.000000 0.190890
vt 0.670178 0.000000
vt 0.870178 0.000000
vt 0.870178 1.815921
vt 0.670178 1.815921
vt 0.194961 0.000000
vt 0.385851 0.000000
vt 0.385851 1.815921
vt 0.194961 1.815921
vt 0.085296 0.000000
vt 0.285296 0.000000
vt 0.285295 1.815921
vt 0.085296 1.815921
vt 0.353366 0.000000
vt 0.544257 0.000000
vt 0.544257 1.815921
vt 0.353366 1.815921
vt 0.480256 0.190890
vt 0.280256 0.190890
vt 0.280256 0.000000
vt 0.480256 0.000000
vt 0.000000 0.000000
vt 0.200000 0.000000
vt 0.200000 0.190890
vt 0.000000 0.190890
vt 0.842152 0.190890
vt 0.642152 0.190890
vt 0.642152 -0.000000
vt 0.842152 -0.000000
vt 0.200000 0.191243
vt 0.000000 0.191243
vt 0.000000 0.000000
vt 0.200000 0.000000
vt 0.272915 0.000000
vt 0.472915 0.000000
vt 0.472566 1.445381
vt 0.273264 1.462069
vt 0.765922 0.000000
vt 0.965922 0.000000
vt 0.965922 1.462069
vt 0.765922 1.462069
vt 0.396167 0.000000
vt 0.596167 0.000000
vt 0.595818 1.462069
vt 0.396515 1.445381
vt 0.554633 0.000000
vt 0.754633 0.000000
vt 0.754633 1.445381
vt 0.554633 1.445381
vt 0.791673 0.049865
vt 0.949917 -0.072442
vt 1.072224 0.085802
vt 0.913980 0.208109
vt 0.308130 0.000000
vt 0.508130 0.000000
vt 0.508130 0.200000
vt 0.308130 0.200000
vt 0.268071 0.000000
vt 0.468071 0.000000
vt 0.469588 1.473068
vt 0.270026 1.461537
vt 0.694548 -0.000000
vt 0.894548 -0.000000
vt 0.894659 1.461552
vt 0.700967 1.411836
vt 0.645808 -0.000000
vt 0.845808 -0.000000
vt 0.847325 1.411854
vt 0.647763 1.423327
vt 0.463032 -0.000000
vt 0.663032 -0.000000
vt 0.663143 1.423343
vt 0.469451 1.473051
vt 0.199887 0.474696
vt 0.000000 0.467958
vt 0.006738 0.268071
vt 0.206625 0.274809
vt 0.000000 0.560512
vt 0.200000 0.560512
vt 0.200000 0.760512
vt 0.000000 0.760512
vt 0.597068 0.000000
vt 0.797068 0.000000
vt 0.797068 1.820984
vt 0.597068 1.820984
vt 0.438662 -0.000000
vt 0.629552 -0.000000
vt 0.629552 1.820984
vt 0.438662 1.820984
vt 0.194961 -0.000000
vt 0.394961 -0.000000
vt 0.394961 1.820984
vt 0.194961 1.820984
vt 0.389922 0.000000
vt 0.580812 0.000000
vt 0.580812 1.820984
vt 0.389922 1.820984
vt 0.200000 0.190890
vt 0.000000 0.190890
vt 0.000000 0.000000
vt 0.200000 0.000000
vt 0.000000 0.000000
vt 0.200000 0.000000
vt 0.200000 0.190890
vt 0.000000 0.190890
vt 0.463955 -0.591169
vt 0.663955 -0.591169
vt 0.663955 1.224752
vt 0.463955 1.224752
vt 0.763281 0.284360
vt 0.954171 0.284360
vt 0.954171 2.100280
vt 0.763281 2.100280
vt 0.217011 -0.987776
vt 0.417011 -0.987776
vt 0.417011 0.828145
vt 0.217011 0.828145
vt 0.576202 0.097281
vt 0.767093 0.097281
vt 0.767092 1.913202
vt 0.576202 1.913202
vt 0.985730 0.190890
vt 0.785730 0.190890
vt 0.785730 0.000000
vt 0.985730 0.000000
vt 0.381641 0.471438
vt 0.581641 0.471438
vt 0.581641 0.662328
vt 0.381641 0.662328
vn -0.044505 -0.002511 -0.999006
vn 0.005554 0.004368 -0.999975
vn -0.044505 -0.002511 -0.999006
vn -0.094388 -0.009375 -0.995491
vn -0.044505 -0.002511 -0.999006
vn -0.044505 -0.002511 -0.999006
vn 0.999360 -0.002082 0.035716
vn 0.997085 0.004906 0.076143
vn 0.999360 -0.002082 0.035716
vn 0.999947 -0.009078 -0.004838
vn 0.999360 -0.002082 0.035716
vn 0.999360 -0.002082 0.035716
vn 0.044504 0.002615 0.999006
vn -0.005516 0.009725 0.999938
vn 0.044504 0.002615 0.999006
vn 0.094477 -0.004512 0.995517
vn 0.044504 0.002615 0.999006
vn 0.044504 0.002615 0.999006
vn -0.999356 0.003157 -0.035733
vn -0.997046 0.009885 -0.076173
vn -0.999356 0.003157 -0.035733
vn -0.999979 -0.003662 0.005285
vn -0.999356 0.003157 -0.035733
vn -0.999356 0.003157 -0.035733
vn -0.009550 0.999353 -0.034683
vn -0.009550 0.999353 -0.034683
vn -0.009550 0.999353 -0.034683
vn -0.009550 0.999353 -0.034683
vn -0.009550 0.999353 -0.034683
vn -0.009550 0.999353 -0.034683
vn -0.002712 -0.999994 0.002003
vn -0.002712 -0.999994 0.002003
vn -0.002712 -0.999994 0.002003
vn -0.002712 -0.999994 0.002003
vn -0.002712 -0.999994 0.002003
vn -0.002712 -0.999994 0.002003
vn 0.999963 -0.002701 -0.008151
vn 0.999963 -0.002699 -0.008151
vn 0.999963 -0.002701 -0.008151
vn 0.999963 -0.002704 -0.008151
vn 0.999963 -0.002701 -0.008151
vn 0.999963 -0.002701 -0.008151
vn 0.002932 0.999564 -0.029378
vn 0.002752 0.999564 -0.029397
vn 0.002932 0.999564 -0.029378
vn 0.003137 0.999564 -0.029357
vn 0.002932 0.999564 -0.029378
vn 0.002932 0.999564 -0.029378
vn -0.999981 0.002703 -0.005542
vn -0.999981 0.002699 -0.005542
vn -0.999981 0.002703 -0.005542
vn -0.999981 0.002708 -0.005541
vn -0.999981 0.002703 -0.005542
vn -0.999981 0.002703 -0.005542
vn -0.002933 -0.999564 0.029378
vn -0.002752 -0.999565 0.029359
vn -0.002933 -0.999564 0.029378
vn -0.003139 -0.999563 0.029400
vn -0.002933 -0.999564 0.029378
vn -0.002933 -0.999564 0.029378
vn 0.009218 -0.029398 -0.999525
vn 0.009237 -0.029415 -0.999525
vn 0.009218 -0.029398 -0.999525
vn 0.009199 -0.029380 -0.999526
vn 0.009218 -0.029398 -0.999525
vn 0.009218 -0.029398 -0.999525
vn -0.007931 0.029397 0.999536
vn -0.007947 0.029380 0.999537
vn -0.007931 0.029397 0.999536
vn -0.007914 0.029414 0.999536
vn -0.007931 0.029397 0.999536
vn -0.007931 0.029397 0.999536
vn 0.999990 0.003570 0.002627
vn 0.999953 0.009504 0.002012
vn 0.999990 0.003570 0.002627
vn 0.999992 -0.002367 0.003242
vn 0.999990 0.003570 0.002627
vn 0.999990 0.003570 0.002627
vn 0.002455 0.999976 0.006416
vn 0.002403 0.999977 0.006410
vn 0.002455 0.999976 0.006416
vn 0.002508 0.999976 0.006422
vn 0.002455 0.999976 0.006416
vn 0.002455 0.999976 0.006416
vn -0.999981 0.002702 -0.005542
vn -0.999981 0.002697 -0.005542
vn -0.999981 0.002702 -0.005542
vn -0.999981 0.002706 -0.005541
vn -0.999981 0.002702 -0.005542
vn -0.999981 0.002702 -0.005542
vn -0.002423 -0.999977 -0.006412
vn -0.002343 -0.999977 -0.006421
vn -0.002423 -0.999977 -0.006412
vn -0.002505 -0.999976 -0.006404
vn -0.002423 -0.999977 -0.006412
vn -0.002423 -0.999977 -0.006412
vn 0.017546 0.006318 -0.999826
vn 0.017608 0.006256 -0.999825
vn 0.017546 0.006318 -0.999826
vn 0.017484 0.006379 -0.999827
vn 0.017546 0.006318 -0.999826
vn 0.017546 0.006318 -0.999826
vn -0.027534 -0.004112 0.999612
vn -0.029735 -0.006341 0.999538
vn -0.027534 -0.004112 0.999612
vn -0.025307 -0.001855 0.999678
vn -0.027534 -0.004112 0.999612
vn -0.027534 -0.004112 0.999612
vn 0.004697 0.008411 -0.999954
vn 0.004697 0.008411 -0.999954
vn 0.004697 0.008411 -0.999954
vn 0.004697 0.008411 -0.999954
vn 0.004697 0.008411 -0.999954
vn 0.004697 0.008411 -0.999954
vn 0.005535 -0.002703 -0.999981
vn 0.005535 -0.002703 -0.999981
vn 0.005535 -0.002703 -0.999981
vn 0.005534 -0.002702 -0.999981
vn 0.005535 -0.002703 -0.999981
vn 0.005535 -0.002703 -0.999981
vn 0.005533 -0.002701 -0.999981
vn 0.005534 -0.002701 -0.999981
vn 0.005533 -0.002701 -0.999981
vn 0.005532 -0.002702 -0.999981
vn 0.005533 -0.002701 -0.999981
vn 0.005533 -0.002701 -0.999981
vn 0.998066 -0.002306 0.062123
vn 0.998066 -0.002307 0.062121
vn 0.998066 -0.002306 0.062123
vn 0.998066 -0.002306 0.062125
vn 0.998066 -0.002306 0.062123
vn 0.998066 -0.002306 0.062123
vn -0.005536 0.002702 0.999981
vn -0.005535 0.002702 0.999981
vn -0.005536 0.002702 0.999981
vn -0.005536 0.002702 0.999981
vn -0.005536 0.002702 0.999981
vn -0.005536 0.002702 0.999981
vn -0.998065 0.002785 -0.062126
vn -0.998065 0.002785 -0.062122
vn -0.998065 0.002785 -0.062126
vn -0.998064 0.002786 -0.062129
vn -0.998065 0.002785 -0.062126
vn -0.998065 0.002785 -0.062126
vn -0.080705 0.996711 -0.007324
vn -0.080706 0.996711 -0.007324
vn -0.080705 0.996711 -0.007324
vn -0.080705 0.996711 -0.007324
vn -0.080705 0.996711 -0.007324
vn -0.080705 0.996711 -0.007324
vn -0.002713 -0.999994 0.002139
vn -0.002713 -0.999994 0.002139
vn -0.002713 -0.999994 0.002139
vn -0.002713 -0.999994 0.002139
vn -0.002713 -0.999994 0.002139
vn -0.002713 -0.999994 0.002139
vn -0.010738 -0.000527 -0.999942
vn 0.005547 0.001656 -0.999983
vn -0.010738 -0.000527 -0.999942
vn -0.027176 -0.002731 -0.999627
vn -0.010738 -0.000527 -0.999942
vn -0.010738 -0.000527 -0.999942
vn 0.999991 -0.002593 -0.003258
vn 0.999984 -0.001364 0.005537
vn 0.999991 -0.002593 -0.003258
vn 0.999912 -0.003907 -0.012670
vn 0.999991 -0.002593 -0.003258
vn 0.999991 -0.002593 -0.003258
vn 0.010875 0.004862 0.999929
vn -0.005522 0.007248 0.999959
vn 0.010875 0.004862 0.999929
vn 0.027162 0.002489 0.999628
vn 0.010875 0.004862 0.999929
vn 0.010875 0.004862 0.999929
vn -0.999991 0.002857 0.003294
vn -0.999976 0.004075 -0.005544
vn -0.999991 0.002857 0.003294
vn -0.999925 0.001643 0.012100
vn -0.999991 0.002857 0.003294
vn -0.999991 0.002857 0.003294
vn 0.065074 0.967395 0.244768
vn 0.065074 0.967395 0.244768
vn 0.065074 0.967395 0.244768
vn 0.065075 0.967395 0.244768
vn 0.065074 0.967395 0.244768
vn 0.065074 0.967395 0.244768
vn -0.002716 -0.999993 0.002686
vn -0.002716 -0.999993 0.002686
vn -0.002716 -0.999993 0.002686
vn -0.002716 -0.999993 0.002686
vn -0.002716 -0.999993 0.002686
vn -0.002716 -0.999993 0.002686
vn 0.992666 -0.120717 0.006472
vn 0.990198 -0.139380 0.009000
vn 0.992666 -0.120717 0.006472
vn 0.994781 -0.101962 0.003935
vn 0.992666 -0.120717 0.006472
vn 0.992666 -0.120717 0.006472
vn 0.184069 0.982606 -0.024593
vn 0.180894 0.983186 -0.024972
vn 0.184069 0.982606 -0.024593
vn 0.187367 0.981992 -0.024198
vn 0.184069 0.982606 -0.024593
vn 0.184069 0.982606 -0.024593
vn -0.995702 0.092288 -0.007725
vn -0.995783 0.091404 -0.007798
vn -0.995702 0.092288 -0.007725
vn -0.995621 0.093172 -0.007651
vn -0.995702 0.092288 -0.007725
vn -0.995702 0.092288 -0.007725
vn -0.189056 -0.981668 0.024197
vn -0.189215 -0.981637 0.024213
vn -0.189056 -0.981668 0.024197
vn -0.188898 -0.981699 0.024182
vn -0.189056 -0.981668 0.024197
vn -0.189056 -0.981668 0.024197
vn 0.006112 -0.063388 -0.997970
vn 0.004730 -0.061573 -0.998091
vn 0.006112 -0.063388 -0.997970
vn 0.007483 -0.065189 -0.997845
vn 0.006112 -0.063388 -0.997970
vn 0.006112 -0.063388 -0.997970
vn -0.014433 0.057262 0.998255
vn -0.003257 0.065487 0.997848
vn -0.014433 0.057262 0.998255
vn -0.024992 0.049479 0.998462
vn -0.014433 0.057262 0.998255
vn -0.014433 0.057262 0.998255
vn 0.999981 -0.002701 0.005542
vn 0.999981 -0.002701 0.005542
vn 0.999981 -0.002701 0.005542
vn 0.999981 -0.002701 0.005542
vn 0.999981 -0.002701 0.005542
vn 0.999981 -0.002701 0.005542
vn 0.002614 0.999997 0.000010
vn 0.002651 0.999996 0.000015
vn 0.002614 0.999997 0.000010
vn 0.002577 0.999997 0.000006
vn 0.002614 0.999997 0.000010
vn 0.002614 0.999997 0.000010
vn -0.999961 0.008325 -0.003086
vn -0.999900 0.013940 -0.002468
vn -0.999961 0.008325 -0.003086
vn -0.999989 0.002706 -0.003704
vn -0.999961 0.008325 -0.003086
vn -0.999961 0.008325 -0.003086
vn -0.002599 -0.999997 -0.000012
vn -0.002621 -0.999997 -0.000010
vn -0.002599 -0.999997 -0.000012
vn -0.002577 -0.999997 -0.000014
vn -0.002599 -0.999997 -0.000012
vn -0.002599 -0.999997 -0.000012
vn 0.023509 -0.000049 -0.999724
vn 0.023510 -0.000049 -0.999724
vn 0.023509 -0.000049 -0.999724
vn 0.023509 -0.000048 -0.999724
vn 0.023509 -0.000049 -0.999724
vn 0.023509 -0.000049 -0.999724
vn -0.015063 -0.002107 0.999884
vn -0.017234 -0.004208 0.999843
vn -0.015063 -0.002107 0.999884
vn -0.012866 0.000019 0.999917
vn -0.015063 -0.002107 0.999884
vn -0.015063 -0.002107 0.999884
s off
g fence:WoodLogPlank
usemtl lambert4SG
f 2/1/1 1/2/2 3/3/3
f 4/4/4 2/1/5 3/3/6
f 6/5/7 5/6/8 7/7/9
f 8/8/10 6/5/11 7/7/12
f 10/9/13 9/10/14 11/11/15
f 12/12/16 10/9/17 11/11/18
f 14/13/19 13/14/20 15/15/21
f 16/16/22 14/13/23 15/15/24
f 18/17/25 17/18/26 19/19/27
f 20/20/28 18/17/29 19/19/30
f 22/21/31 21/22/32 23/23/33
f 24/24/34 22/21/35 23/23/36
f 26/25/37 25/26/38 27/27/39
f 28/28/40 26/25/41 27/27/42
f 30/29/43 29/30/44 31/31/45
f 32/32/46 30/29/47 31/31/48
f 34/33/49 33/34/50 35/35/51
f 36/36/52 34/33/53 35/35/54
f 38/37/55 37/38/56 39/39/57
f 40/40/58 38/37/59 39/39/60
f 42/41/61 41/42/62 43/43/63
f 44/44/64 42/41/65 43/43/66
f 46/45/67 45/46/68 47/47/69
f 48/48/70 46/45/71 47/47/72
f 50/49/73 49/50/74 51/51/75
f 52/52/76 50/49/77 51/51/78
f 54/53/79 53/54/80 55/55/81
f 56/56/82 54/53/83 55/55/84
f 58/57/85 57/58/86 59/59/87
f 60/60/88 58/57/89 59/59/90
f 62/61/91 61/62/92 63/63/93
f 64/64/94 62/61/95 63/63/96
f 66/65/97 65/66/98 67/67/99
f 68/68/100 66/65/101 67/67/102
f 70/69/103 69/70/104 71/71/105
f 72/72/106 70/69/107 71/71/108
f 74/73/109 73/74/110 75/75/111
f 76/76/112 74/73/113 75/75/114
f 78/77/115 77/78/116 79/79/117
f 80/80/118 78/77/119 79/79/120
f 82/81/121 81/82/122 83/83/123
f 84/84/124 82/81/125 83/83/126
f 86/85/127 85/86/128 87/87/129
f 88/88/130 86/85/131 87/87/132
f 90/89/133 89/90/134 91/91/135
f 92/92/136 90/89/137 91/91/138
f 94/93/139 93/94/140 95/95/141
f 96/96/142 94/93/143 95/95/144
f 98/97/145 97/98/146 99/99/147
f 100/100/148 98/97/149 99/99/150
f 102/101/151 101/102/152 103/103/153
f 104/104/154 102/101/155 103/103/156
f 106/105/157 105/106/158 107/107/159
f 108/108/160 106/105/161 107/107/162
f 110/109/163 109/110/164 111/111/165
f 112/112/166 110/109/167 111/111/168
f 114/113/169 113/114/170 115/115/171
f 116/116/172 114/113/173 115/115/174
f 118/117/175 117/118/176 119/119/177
f 120/120/178 118/117/179 119/119/180
f 122/121/181 121/122/182 123/123/183
f 124/124/184 122/121/185 123/123/186
f 126/125/187 125/126/188 127/127/189
f 128/128/190 126/125/191 127/127/192
f 130/129/193 129/130/194 131/131/195
f 132/132/196 130/129/197 131/131/198
f 134/133/199 133/134/200 135/135/201
f 136/136/202 134/133/203 135/135/204
f 138/137/205 137/138/206 139/139/207
f 140/140/208 138/137/209 139/139/210
f 142/141/211 141/142/212 143/143/213
f 144/144/214 142/141/215 143/143/216
f 146/145/217 145/146/218 147/147/219
f 148/148/220 146/145/221 147/147/222
f 150/149/223 149/150/224 151/151/225
f 152/152/226 150/149/227 151/151/228
f 154/153/229 153/154/230 155/155/231
f 156/156/232 154/153/233 155/155/234
f 158/157/235 157/158/236 159/159/237
f 160/160/238 158/157/239 159/159/240
f 162/161/241 161/162/242 163/163/243
f 164/164/244 162/161/245 163/163/246
f 166/165/247 165/166/248 167/167/249
f 168/168/250 166/165/251 167/167/252
f 170/169/253 169/170/254 171/171/255
f 172/172/256 170/169/257 171/171/258
f 174/173/259 173/174/260 175/175/261
f 176/176/262 174/173/263 175/175/264
